<svg width="50" height="50" viewBox="0 0 50 50" fill="none" xmlns="http://www.w3.org/2000/svg">
<path d="M37.8721 9.59793C39.5275 9.04614 40.355 8.77054 40.792 9.20731C41.229 9.64432 40.9533 10.4724 40.4014 12.1282L31.0635 40.1409C30.2791 42.4941 29.8868 43.6712 29.166 43.6712C28.4456 43.6707 28.0538 42.4936 27.2695 40.1409L23.2695 28.1419L31.9561 19.4563C32.3466 19.0658 32.3466 18.4328 31.9561 18.0423C31.5655 17.6524 30.9323 17.652 30.542 18.0423L21.8545 26.7288L9.8584 22.7307C7.50544 21.9464 6.32929 21.5539 6.3291 20.8333C6.3291 20.1125 7.50532 19.7202 9.8584 18.9358L37.8721 9.59793Z" fill="#2563EB"/>
</svg>
